PathFileType	4	(X/Y/Z)	C:\Users\italobelli\Desktop\GitHub\PTbot_officialCBL\Personal_Results\ABD23_noisy2.trc
DataRate	CameraRate	NumFrames	NumMarkers	Units	OrigDataRate	OrigDataStartFrame	OrigNumFrames
105.444444	105.444444	29	9	m	105.444444	357	950
Frame#	Time		gu		centelbow		EpL		centpxt8		centijc7		ij		ts		aa		ai
			X1	Y1	Z1	X2	Y2	Z2	X3	Y3	Z3	X4	Y4	Z4	X5	Y5	Z5	X6	Y6	Z6	X7	Y7	Z7	X8	Y8	Z8	X9	Y9	Z9

357	3.3762	-0.098736	0.063855	0.10159	-0.016144	0.27011	0.2324	-0.03616	0.28578	0.21255	-0.046816	-0.15316	-0.008669	-0.046816	0.031938	-0.008669	0	0	0	-0.1448	-0.015508	0.049214	-0.13932	0.088498	0.10729	-0.13779	-0.066609	0.15051
358	3.3857	-0.098782	0.063841	0.10145	-0.015123	0.27052	0.23131	-0.035194	0.28616	0.21151	-0.046816	-0.15316	-0.008669	-0.046816	0.031938	-0.008669	0	0	0	-0.14504	-0.015546	0.04935	-0.13934	0.088567	0.10722	-0.13776	-0.066452	0.15071
359	3.3952	-0.098829	0.063829	0.10131	-0.014149	0.27091	0.23025	-0.034275	0.28652	0.21048	-0.046816	-0.15316	-0.008669	-0.046816	0.031938	-0.008669	0	0	0	-0.14526	-0.015584	0.049481	-0.13937	0.088634	0.10716	-0.13773	-0.066299	0.15091
360	3.4046	-0.098875	0.06382	0.10117	-0.013225	0.27128	0.2292	-0.033407	0.28686	0.20948	-0.046816	-0.15316	-0.008669	-0.046816	0.031938	-0.008669	0	0	0	-0.14548	-0.015621	0.049607	-0.13939	0.088697	0.10709	-0.13769	-0.066149	0.15111
361	3.4141	-0.098922	0.063812	0.10103	-0.012353	0.27164	0.22818	-0.032591	0.28718	0.20849	-0.046816	-0.15316	-0.008669	-0.046816	0.031938	-0.008669	0	0	0	-0.14569	-0.015658	0.049729	-0.13941	0.088758	0.10702	-0.13766	-0.066002	0.15129
362	3.4236	-0.098969	0.063807	0.1009	-0.011537	0.27197	0.22718	-0.031831	0.28749	0.20753	-0.046816	-0.15316	-0.008669	-0.046816	0.031938	-0.008669	0	0	0	-0.14588	-0.015695	0.049846	-0.13944	0.088817	0.10695	-0.13762	-0.06586	0.15147
363	3.4331	-0.099016	0.063804	0.10076	-0.010778	0.27228	0.2262	-0.031129	0.28777	0.2066	-0.046816	-0.15316	-0.008669	-0.046816	0.031938	-0.008669	0	0	0	-0.14607	-0.015731	0.049957	-0.13946	0.088872	0.10688	-0.13759	-0.06572	0.15163
364	3.4426	-0.099064	0.063804	0.10063	-0.010079	0.27257	0.22525	-0.030488	0.28803	0.20568	-0.046816	-0.15316	-0.008669	-0.046816	0.031938	-0.008669	0	0	0	-0.14624	-0.015767	0.050064	-0.13948	0.088925	0.10681	-0.13755	-0.065585	0.1518
365	3.4521	-0.099112	0.063807	0.1005	-0.009444	0.27284	0.22432	-0.02991	0.28827	0.20479	-0.046816	-0.15316	-0.008669	-0.046816	0.031938	-0.008669	0	0	0	-0.1464	-0.015803	0.050165	-0.13951	0.088975	0.10674	-0.13752	-0.065453	0.15195
366	3.4615	-0.09916	0.063812	0.10038	-0.0088744	0.27309	0.22342	-0.029398	0.28849	0.20393	-0.046816	-0.15316	-0.008669	-0.046816	0.031938	-0.008669	0	0	0	-0.14655	-0.015839	0.05026	-0.13953	0.089022	0.10666	-0.13748	-0.065325	0.15209
367	3.471	-0.099209	0.06382	0.10025	-0.0083731	0.27332	0.22255	-0.028955	0.28869	0.20309	-0.046816	-0.15316	-0.008669	-0.046816	0.031938	-0.008669	0	0	0	-0.14669	-0.015875	0.05035	-0.13956	0.089066	0.10659	-0.13744	-0.065201	0.15223
368	3.4805	-0.099257	0.063832	0.10013	-0.0079428	0.27352	0.2217	-0.028584	0.28887	0.20228	-0.046816	-0.15316	-0.008669	-0.046816	0.031938	-0.008669	0	0	0	-0.14681	-0.01591	0.050434	-0.13959	0.089107	0.10652	-0.13741	-0.065081	0.15236
369	3.49	-0.099307	0.063846	0.10001	-0.0075861	0.2737	0.22088	-0.028286	0.28902	0.20149	-0.046816	-0.15316	-0.008669	-0.046816	0.031938	-0.008669	0	0	0	-0.14691	-0.015946	0.050512	-0.13961	0.089144	0.10644	-0.13737	-0.064965	0.15247
370	3.4995	-0.099356	0.063864	0.099895	-0.0073058	0.27386	0.22008	-0.028066	0.28915	0.20073	-0.046816	-0.15316	-0.008669	-0.046816	0.031938	-0.008669	0	0	0	-0.14701	-0.015981	0.050584	-0.13964	0.089179	0.10636	-0.13733	-0.064854	0.15258
371	3.509	-0.099407	0.063884	0.09978	-0.0070733	0.274	0.21931	-0.027892	0.28927	0.19999	-0.046816	-0.15316	-0.008669	-0.046816	0.031938	-0.008669	0	0	0	-0.14709	-0.016017	0.05065	-0.13967	0.089211	0.10629	-0.13729	-0.064746	0.15269
372	3.5184	-0.099459	0.063904	0.099665	-0.0068509	0.27414	0.21855	-0.027727	0.28937	0.19927	-0.046816	-0.15316	-0.008669	-0.046816	0.031938	-0.008669	0	0	0	-0.14717	-0.016052	0.050711	-0.13969	0.089242	0.10621	-0.13725	-0.064642	0.15278
373	3.5279	-0.099512	0.063925	0.09955	-0.0066385	0.27426	0.21781	-0.027569	0.28947	0.19856	-0.046816	-0.15316	-0.008669	-0.046816	0.031938	-0.008669	0	0	0	-0.14724	-0.016088	0.050766	-0.13972	0.08927	0.10613	-0.13721	-0.06454	0.15287
374	3.5374	-0.099567	0.063946	0.099435	-0.006436	0.27437	0.21708	-0.027419	0.28955	0.19786	-0.046816	-0.15316	-0.008669	-0.046816	0.031938	-0.008669	0	0	0	-0.14731	-0.016123	0.050817	-0.13975	0.089296	0.10604	-0.13717	-0.064441	0.15296
375	3.5469	-0.099624	0.063967	0.099321	-0.0062432	0.27447	0.21637	-0.027276	0.28963	0.19717	-0.046816	-0.15316	-0.008669	-0.046816	0.031938	-0.008669	0	0	0	-0.14738	-0.016159	0.050862	-0.13978	0.089321	0.10596	-0.13712	-0.064345	0.15304
376	3.5564	-0.099681	0.063989	0.099208	-0.00606	0.27456	0.21567	-0.027141	0.2897	0.19651	-0.046816	-0.15316	-0.008669	-0.046816	0.031938	-0.008669	0	0	0	-0.14744	-0.016194	0.050902	-0.13981	0.089344	0.10588	-0.13707	-0.064253	0.15311
377	3.5659	-0.09974	0.064011	0.099095	-0.0058864	0.27465	0.21499	-0.027012	0.28975	0.19585	-0.046816	-0.15316	-0.008669	-0.046816	0.031938	-0.008669	0	0	0	-0.14751	-0.016229	0.050937	-0.13984	0.089365	0.10579	-0.13702	-0.064163	0.15318
378	3.5753	-0.099799	0.064034	0.098983	-0.0057222	0.27472	0.21432	-0.026892	0.2898	0.19521	-0.046816	-0.15316	-0.008669	-0.046816	0.031938	-0.008669	0	0	0	-0.14756	-0.016264	0.050967	-0.13987	0.089385	0.1057	-0.13697	-0.064077	0.15324
379	3.5848	-0.09986	0.064057	0.098872	-0.0055674	0.27478	0.21367	-0.026778	0.28984	0.19459	-0.046816	-0.15316	-0.008669	-0.046816	0.031938	-0.008669	0	0	0	-0.14762	-0.016299	0.050992	-0.13991	0.089403	0.10561	-0.13692	-0.063994	0.1533
380	3.5943	-0.099922	0.064081	0.098761	-0.0054217	0.27483	0.21304	-0.026671	0.28987	0.19398	-0.046816	-0.15316	-0.008669	-0.046816	0.031938	-0.008669	0	0	0	-0.14767	-0.016334	0.051012	-0.13994	0.089419	0.10553	-0.13687	-0.063914	0.15335
381	3.6038	-0.099984	0.064104	0.098651	-0.0052852	0.27487	0.21242	-0.026572	0.28989	0.19339	-0.046816	-0.15316	-0.008669	-0.046816	0.031938	-0.008669	0	0	0	-0.14772	-0.016369	0.051028	-0.13997	0.089433	0.10544	-0.13681	-0.063838	0.15339
382	3.6133	-0.10005	0.064129	0.098542	-0.0051577	0.27491	0.21182	-0.026479	0.28991	0.19282	-0.046816	-0.15316	-0.008669	-0.046816	0.031938	-0.008669	0	0	0	-0.14776	-0.016403	0.051039	-0.14	0.089446	0.10535	-0.13676	-0.063765	0.15343
383	3.6228	-0.10011	0.064153	0.098434	-0.0050391	0.27493	0.21124	-0.026393	0.28991	0.19226	-0.046816	-0.15316	-0.008669	-0.046816	0.031938	-0.008669	0	0	0	-0.1478	-0.016437	0.051046	-0.14004	0.089457	0.10526	-0.1367	-0.063696	0.15347
384	3.6322	-0.10017	0.064178	0.098327	-0.0049293	0.27495	0.21068	-0.026314	0.2899	0.19172	-0.046816	-0.15316	-0.008669	-0.046816	0.031938	-0.008669	0	0	0	-0.14784	-0.016471	0.051048	-0.14007	0.089466	0.10517	-0.13664	-0.06363	0.1535
385	3.6417	-0.10024	0.064203	0.098222	-0.0048282	0.27495	0.21014	-0.026242	0.28989	0.1912	-0.046816	-0.15316	-0.008669	-0.046816	0.031938	-0.008669	0	0	0	-0.14788	-0.016505	0.051045	-0.1401	0.089474	0.10507	-0.13658	-0.063568	0.15352
